<mxfile host="Electron" agent="Mozilla/5.0 (X11; Linux x86_64) AppleWebKit/537.36 (KHTML, like Gecko) draw.io/24.7.17 Chrome/128.0.6613.36 Electron/32.0.1 Safari/537.36" version="24.7.17">
  <diagram name="Page-1" id="gYwiytsKtVaJuBbhWnU8">
    <mxGraphModel dx="2070" dy="1343" grid="1" gridSize="10" guides="1" tooltips="1" connect="1" arrows="1" fold="1" page="1" pageScale="1" pageWidth="850" pageHeight="1100" math="0" shadow="0">
      <root>
        <mxCell id="0" />
        <mxCell id="1" parent="0" />
        <mxCell id="BnU-ct7o2mCnt1zdasA1-1" value="DFX Controller" style="rounded=0;whiteSpace=wrap;html=1;verticalAlign=top;fontSize=12;fontStyle=1" parent="1" vertex="1">
          <mxGeometry x="360" y="120" width="180" height="290" as="geometry" />
        </mxCell>
        <mxCell id="BnU-ct7o2mCnt1zdasA1-2" value="Memory" style="rounded=0;whiteSpace=wrap;html=1;verticalAlign=bottom;fontSize=12;fontStyle=1" parent="1" vertex="1">
          <mxGeometry x="362.5" y="480" width="177.5" height="150" as="geometry" />
        </mxCell>
        <mxCell id="BnU-ct7o2mCnt1zdasA1-3" value="File System" style="rounded=0;whiteSpace=wrap;html=1;verticalAlign=bottom;fontSize=12;fontStyle=1" parent="1" vertex="1">
          <mxGeometry x="150" y="480" width="170" height="150" as="geometry" />
        </mxCell>
        <mxCell id="BnU-ct7o2mCnt1zdasA1-4" value="RP" style="rounded=0;whiteSpace=wrap;html=1;verticalAlign=bottom;fontSize=12;fontStyle=1" parent="1" vertex="1">
          <mxGeometry x="600" y="480" width="175" height="150" as="geometry" />
        </mxCell>
        <mxCell id="BnU-ct7o2mCnt1zdasA1-5" value="ICAP" style="rounded=0;whiteSpace=wrap;html=1;fontSize=12;fontStyle=1" parent="1" vertex="1">
          <mxGeometry x="627.5" y="341.5" width="120" height="60" as="geometry" />
        </mxCell>
        <mxCell id="BnU-ct7o2mCnt1zdasA1-6" value="Software" style="rounded=1;whiteSpace=wrap;html=1;fontSize=12;fontStyle=1" parent="1" vertex="1">
          <mxGeometry x="180" y="341.5" width="120" height="60" as="geometry" />
        </mxCell>
        <mxCell id="BnU-ct7o2mCnt1zdasA1-7" value="RM Partial Bitstream&lt;div style=&quot;font-size: 12px;&quot;&gt;File&lt;/div&gt;" style="rounded=1;whiteSpace=wrap;html=1;fillColor=#dae8fc;strokeColor=#6c8ebf;fontSize=12;fontStyle=1" parent="1" vertex="1">
          <mxGeometry x="175" y="510" width="120" height="60" as="geometry" />
        </mxCell>
        <mxCell id="BnU-ct7o2mCnt1zdasA1-8" value="" style="rounded=1;whiteSpace=wrap;html=1;fillColor=none;strokeColor=#000000;dashed=1;fontSize=12;fontStyle=1" parent="1" vertex="1">
          <mxGeometry x="390" y="510" width="120" height="60" as="geometry" />
        </mxCell>
        <mxCell id="BnU-ct7o2mCnt1zdasA1-9" value="" style="endArrow=classic;html=1;rounded=0;edgeStyle=orthogonalEdgeStyle;curved=1;dashed=1;fontSize=12;fontStyle=1" parent="1" source="BnU-ct7o2mCnt1zdasA1-7" target="BnU-ct7o2mCnt1zdasA1-8" edge="1">
          <mxGeometry width="50" height="50" relative="1" as="geometry">
            <mxPoint x="270" y="540" as="sourcePoint" />
            <mxPoint x="320" y="490" as="targetPoint" />
            <Array as="points">
              <mxPoint x="235" y="470" />
              <mxPoint x="453" y="470" />
            </Array>
          </mxGeometry>
        </mxCell>
        <mxCell id="BnU-ct7o2mCnt1zdasA1-10" value="addr" style="rounded=0;whiteSpace=wrap;html=1;fontSize=12;fontStyle=1" parent="1" vertex="1">
          <mxGeometry x="395" y="371.5" width="50" height="20" as="geometry" />
        </mxCell>
        <mxCell id="BnU-ct7o2mCnt1zdasA1-11" value="size" style="rounded=0;whiteSpace=wrap;html=1;fontSize=12;fontStyle=1" parent="1" vertex="1">
          <mxGeometry x="445" y="371.5" width="50" height="20" as="geometry" />
        </mxCell>
        <mxCell id="BnU-ct7o2mCnt1zdasA1-12" value="BS_INFO_0 Reg." style="text;html=1;align=center;verticalAlign=middle;whiteSpace=wrap;rounded=0;fontSize=12;fontStyle=1" parent="1" vertex="1">
          <mxGeometry x="395" y="341.5" width="110" height="30" as="geometry" />
        </mxCell>
        <mxCell id="BnU-ct7o2mCnt1zdasA1-13" value="enable DFX Ctrl" style="rounded=0;whiteSpace=wrap;html=1;fontSize=12;fontStyle=1" parent="1" vertex="1">
          <mxGeometry x="395" y="311.5" width="100" height="20" as="geometry" />
        </mxCell>
        <mxCell id="BnU-ct7o2mCnt1zdasA1-14" value="DFX Ctrl Reg." style="text;html=1;align=center;verticalAlign=middle;whiteSpace=wrap;rounded=0;fontSize=12;fontStyle=1" parent="1" vertex="1">
          <mxGeometry x="395" y="281.5" width="105" height="30" as="geometry" />
        </mxCell>
        <mxCell id="BnU-ct7o2mCnt1zdasA1-16" value="trigger" style="rounded=0;whiteSpace=wrap;html=1;fontSize=12;fontStyle=1" parent="1" vertex="1">
          <mxGeometry x="395" y="248.5" width="100" height="20" as="geometry" />
        </mxCell>
        <mxCell id="BnU-ct7o2mCnt1zdasA1-17" value="SW_TRIG Reg." style="text;html=1;align=center;verticalAlign=middle;whiteSpace=wrap;rounded=0;fontSize=12;fontStyle=1" parent="1" vertex="1">
          <mxGeometry x="395" y="218.5" width="105" height="30" as="geometry" />
        </mxCell>
        <mxCell id="BnU-ct7o2mCnt1zdasA1-18" value="status" style="rounded=0;whiteSpace=wrap;html=1;fontSize=12;fontStyle=1" parent="1" vertex="1">
          <mxGeometry x="395" y="190.5" width="100" height="20" as="geometry" />
        </mxCell>
        <mxCell id="BnU-ct7o2mCnt1zdasA1-19" value="DFX_STATUS Reg." style="text;html=1;align=center;verticalAlign=middle;whiteSpace=wrap;rounded=0;fontSize=12;fontStyle=1" parent="1" vertex="1">
          <mxGeometry x="395" y="160.5" width="110" height="30" as="geometry" />
        </mxCell>
        <mxCell id="BnU-ct7o2mCnt1zdasA1-20" value="1. Load Bitstream into memory" style="endArrow=classic;html=1;rounded=0;fontStyle=1;fontSize=12;" parent="1" source="BnU-ct7o2mCnt1zdasA1-6" edge="1">
          <mxGeometry width="50" height="50" relative="1" as="geometry">
            <mxPoint x="60" y="460" as="sourcePoint" />
            <mxPoint x="330" y="470" as="targetPoint" />
          </mxGeometry>
        </mxCell>
        <mxCell id="oAi9hQPWvY1BP3TBKDkt-1" value="" style="rounded=0;whiteSpace=wrap;html=1;fillColor=none;strokeColor=none;" vertex="1" parent="1">
          <mxGeometry y="360" width="920" height="60" as="geometry" />
        </mxCell>
      </root>
    </mxGraphModel>
  </diagram>
</mxfile>
